<svg width="56" height="56" viewBox="0 0 56 56" fill="none" xmlns="http://www.w3.org/2000/svg">
<path d="M28 51.3333C15.113 51.3333 4.66663 40.887 4.66663 28C4.66663 15.113 15.113 4.66663 28 4.66663C40.887 4.66663 51.3333 15.113 51.3333 28C51.3333 40.887 40.887 51.3333 28 51.3333ZM18.48 21.546V21.784C18.48 22.0934 18.6029 22.3901 18.8217 22.6089C19.0405 22.8277 19.3372 22.9506 19.6466 22.9506H21.973C22.1259 22.9506 22.2773 22.9205 22.4185 22.862C22.5598 22.8035 22.6881 22.7177 22.7963 22.6096C22.9044 22.5015 22.9902 22.3731 23.0487 22.2319C23.1072 22.0906 23.1373 21.9392 23.1373 21.7863C23.1373 18.7763 25.466 17.1686 28.5973 17.1686C31.6493 17.1686 33.656 18.7763 33.656 21.0653C33.656 23.2306 32.5313 24.2363 29.722 25.522L28.9193 25.8813C26.551 26.9266 25.6666 28.49 25.6666 31.2223V31.5C25.6666 31.8094 25.7895 32.1061 26.0083 32.3249C26.2271 32.5437 26.5239 32.6666 26.8333 32.6666H29.1596C29.3125 32.6666 29.4639 32.6365 29.6052 32.578C29.7465 32.5195 29.8748 32.4337 29.9829 32.3256C30.0911 32.2175 30.1768 32.0891 30.2353 31.9479C30.2938 31.8066 30.324 31.6552 30.324 31.5023C30.324 30.2983 30.646 29.8153 31.6073 29.3743L32.4123 29.0126C35.784 27.4866 38.3133 25.48 38.3133 21.1026V20.8623C38.3133 16.247 34.3 12.8333 28.5973 12.8333C22.8153 12.8333 18.48 16.1653 18.48 21.546ZM24.5 39.6456C24.5 41.6686 26.0376 43.1666 27.979 43.1666C29.9623 43.1666 31.5 41.6686 31.5 39.6456C31.5 37.6226 29.9623 36.1666 27.979 36.1666C26.0376 36.1666 24.5 37.6226 24.5 39.6456Z" fill="white"/>
</svg>
